<svg width="1844" height="526" viewBox="0 0 1844 526" fill="none" preserveAspectRatio="none" xmlns="http://www.w3.org/2000/svg">
<g id="Group 223">
<g id="Rectangle 1">
<g filter="url(#filter0_i_32_11)">
<rect x="3.92334" y="0.853882" width="1836.15" height="523.698" fill="#040940" fill-opacity="0.53"/>
</g>
<rect x="4.42334" y="1.35388" width="1835.15" height="522.698" stroke="#27A6FF"/>
</g>
<g id="Vector">
<path d="M0 1.39876e-06H4.8V16H0V1.39876e-06Z" fill="#00D7FF"/>
<path d="M0 4.8V1.39876e-06L16 0V4.8L0 4.8Z" fill="#00D7FF"/>
</g>
<g id="Vector_2">
<path d="M0 526H4.8V510H0V526Z" fill="#00D7FF"/>
<path d="M0 521.2V526L16 526V521.2L0 521.2Z" fill="#00D7FF"/>
</g>
<g id="Vector_3">
<path d="M1844 1.39876e-06H1839.2V16H1844V1.39876e-06Z" fill="#00D7FF"/>
<path d="M1844 4.8V1.39876e-06L1828 0V4.8L1844 4.8Z" fill="#00D7FF"/>
</g>
<g id="Vector_4">
<path d="M1844 526H1839.2V510H1844V526Z" fill="#00D7FF"/>
<path d="M1844 521.2V526L1828 526V521.2L1844 521.2Z" fill="#00D7FF"/>
</g>
</g>
<defs>
<filter id="filter0_i_32_11" x="3.92334" y="0.853882" width="1836.15" height="523.698" filterUnits="userSpaceOnUse" color-interpolation-filters="sRGB">
<feFlood flood-opacity="0" result="BackgroundImageFix"/>
<feBlend mode="normal" in="SourceGraphic" in2="BackgroundImageFix" result="shape"/>
<feColorMatrix in="SourceAlpha" type="matrix" values="0 0 0 0 0 0 0 0 0 0 0 0 0 0 0 0 0 0 127 0" result="hardAlpha"/>
<feOffset/>
<feGaussianBlur stdDeviation="26.5"/>
<feComposite in2="hardAlpha" operator="arithmetic" k2="-1" k3="1"/>
<feColorMatrix type="matrix" values="0 0 0 0 0.245503 0 0 0 0 0.475655 0 0 0 0 0.745833 0 0 0 0.25 0"/>
<feBlend mode="normal" in2="shape" result="effect1_innerShadow_32_11"/>
</filter>
</defs>
</svg>
