<svg width="904" height="526" viewBox="0 0 904 526" preserveAspectRatio="none" fill="none" xmlns="http://www.w3.org/2000/svg">
<g id="Group 224">
<g id="Rectangle 1">
<g filter="url(#filter0_i_32_12)">
<rect x="1.9234" y="0.853882" width="900.153" height="523.698" fill="#040940" fill-opacity="0.53"/>
</g>
<rect x="2.4234" y="1.35388" width="899.153" height="522.698" stroke="#27A6FF"/>
</g>
<g id="Vector">
<path d="M0 1.39876e-06H4.8V16H0V1.39876e-06Z" fill="#00D7FF"/>
<path d="M0 4.8V1.39876e-06L16 0V4.8L0 4.8Z" fill="#00D7FF"/>
</g>
<g id="Vector_2">
<path d="M0 526H4.8V510H0V526Z" fill="#00D7FF"/>
<path d="M0 521.2V526L16 526V521.2L0 521.2Z" fill="#00D7FF"/>
</g>
<g id="Vector_3">
<path d="M904 1.39876e-06H899.2V16H904V1.39876e-06Z" fill="#00D7FF"/>
<path d="M904 4.8V1.39876e-06L888 0V4.8L904 4.8Z" fill="#00D7FF"/>
</g>
<g id="Vector_4">
<path d="M904 526H899.2V510H904V526Z" fill="#00D7FF"/>
<path d="M904 521.2V526L888 526V521.2L904 521.2Z" fill="#00D7FF"/>
</g>
</g>
<defs>
<filter id="filter0_i_32_12" x="1.9234" y="0.853882" width="900.153" height="523.698" filterUnits="userSpaceOnUse" color-interpolation-filters="sRGB">
<feFlood flood-opacity="0" result="BackgroundImageFix"/>
<feBlend mode="normal" in="SourceGraphic" in2="BackgroundImageFix" result="shape"/>
<feColorMatrix in="SourceAlpha" type="matrix" values="0 0 0 0 0 0 0 0 0 0 0 0 0 0 0 0 0 0 127 0" result="hardAlpha"/>
<feOffset/>
<feGaussianBlur stdDeviation="26.5"/>
<feComposite in2="hardAlpha" operator="arithmetic" k2="-1" k3="1"/>
<feColorMatrix type="matrix" values="0 0 0 0 0.245503 0 0 0 0 0.475655 0 0 0 0 0.745833 0 0 0 0.25 0"/>
<feBlend mode="normal" in2="shape" result="effect1_innerShadow_32_12"/>
</filter>
</defs>
</svg>
